<?xml version="1.0" encoding="utf-8"?>
<!-- Generator: Adobe Illustrator 18.1.1, SVG Export Plug-In . SVG Version: 6.00 Build 0)  -->
<!DOCTYPE svg PUBLIC "-//W3C//DTD SVG 1.1//EN" "http://www.w3.org/Graphics/SVG/1.1/DTD/svg11.dtd">
<svg version="1.1" id="Layer_1" xmlns="http://www.w3.org/2000/svg" xmlns:xlink="http://www.w3.org/1999/xlink" x="0px" y="0px"
	 viewBox="0 0 800 400" enable-background="new 0 0 800 400" xml:space="preserve">
<g>
	<path fill="#FFFFFF" d="M783.4,358.8C764.6,332.7,686.2,227.4,624,74.5c0.9-4.5,1.6-9.2,2.1-14c0,0-2.8-5.2-7.4-10
		c-0.2-0.6-0.5-0.8-0.9-0.9c-0.7-0.7-1.4-1.3-2.2-2c-0.2-0.8-0.5-1.9-0.5-1.9s-0.8-0.4-1.3-0.4c-0.5,0-2.2-0.9-3.3-1.3
		c-1.1-0.4-1.8-0.7-2.2-1.3c-0.4-0.7-1.1-1.4-1.4-1.7c-0.4-0.3-1.3,0-1.8,0.1c-0.5,0.1-2.6,0.3-3.6-0.1l-1,1.2c0,0-4.7,15-10.3,29.9
		c-0.1,0.1-3.2,7.9-3.2,8c2.9-3.5,6.1-7.1,9.2-9.7c-1.4,4.6-2.9,9.5-4.6,14.7c-2.1,0-7.9,4-7.9,4
		c-50.1,121.4-137.7,235.1-148.3,248.7c0,0,0,0-0.1,0.1l0,0c-0.1,0.1-0.1,0.1-0.2,0.2c1.7,5.7,5.1,12.2,11.6,18
		c3.5-0.3,7.8-0.7,13.1-1.3c6.4,3.3,13.7,6.4,21.6,8.5c-0.5,1-1.1,1.4-1.6,1.3c-2.2-0.5-1.5-1.5-2.6-1c-1.2,0.6-1.6-0.1-2.5,0
		c-0.9,0.1-0.8,0.3-1.9,0.4c-1,0.1-2.3-0.2-2.3-0.2l-0.7-0.7c-0.6,0.2-1.4,0.2-1.4,0.2s0-0.8-0.4-0.7c-0.5,0.1-1.4,0.5-1.4,0.5
		l-1.3-0.5c0,0-0.3-0.1-0.8-0.2c-0.5-0.1-0.5-0.5-1.4-0.4c-0.9,0.1-2.7-0.6-2.7-0.6s7.9,5.6,24,4.7l3.7-12.6l0.8-1.5
		c19.5-1.7,44.3-3.1,73.5-2.8c33.4,1.2,107,8.1,200.7,43.5c0,0-7.8-3.8-21.3-9.5c0.6,0.2,1,0.3,1,0.3s-2-0.7-3.2-1.2
		c0,0,0,0-0.3-0.1c-1-0.4-2-0.8-3.1-1.3c-0.3-0.2-0.6-0.4-0.6-0.4l-1.5-1.7c0,0,0,0-2.7-1.7c-2.7-1.7,0,0-0.7,0c-0.7,0-1.7,0-3.5,0
		c-1.7,0-3-2-3-2s0,0-0.7-0.5c-0.7-0.5-2.7-0.7-2.7-0.7s0,0-2.5-0.2c-0.7-0.1-1-0.1-1.2-0.1c-0.1,0-0.1-0.1-0.2-0.1
		c-0.1,0-0.2-0.1-0.5-0.2c-2.3-0.9-4.7-1.7-7.2-2.6c-0.1-0.4-0.1-0.7-0.1-0.7s-1.2,0-2.4-0.2c-0.9-0.3-1.7-0.6-2.6-0.9
		c-0.1-0.1-0.2-0.2-0.3-0.4c-0.2-0.7-1.2-2-1.2-2s0,0-1.7,1.2c-1.1-0.4-2.2-0.8-3.3-1.1c-0.1-0.3-0.1-0.5-0.1-0.8
		c0,0-1.5-0.7-2.7-1.5c0,0-3.7,1-4.7-0.7l-1,0.2c-2.1-0.7-4.3-1.4-6.5-2.1c0-0.4,0-0.9,0-1.3c23.6,4,48.6,9.3,74.9,16.3
		c1.5,1.6,3.2,3.1,5.2,4.4c10.7,7.3,23.2,7.7,27.9,0.9C794.7,375.6,791.5,366,783.4,358.8z M481.3,288l-0.6-0.8
		c26.1-37.7,48.5-75.2,66.2-107.6l5.3-2.9c0,0.6-0.1,1.3-0.3,1.6c-0.4,0.6-1.5,2.1-1.5,2.1c-0.6,2.1-0.6,2.1-0.6,2.1
		s-0.6,0.2-1.3,1.1c-0.6,0.9-1.3,2.1-1.3,2.1l0.4,1.7c-2.1,0.4-2.3-2.1-2.1,0.4c0.2,1.9,0.2,3.2,0.2,3.8c-0.1,0.1-0.1,0.2-0.2,0.3
		l-2.4,0.4c0,0-0.2,1.1-0.4,2.3c-0.2,1.3-0.6,2.3-1.1,3.4c-0.4,1.1-1.7,2.3-1.7,2.3s-0.6-0.2-1.3,1.3c-0.6,1.5-0.4,0-0.6,1.5
		c-0.2,1.5,2.3-1.1-0.2,1.5c-2.6,2.6-3.2,2.3-3.4,4.3c-0.2,1.4-0.1,2.3-0.3,3.1c-0.6,1.1-1.3,2.2-1.9,3.3c-0.7,0.9-1.1,1.7-1.4,2.3
		C516.8,240.8,500.4,264.5,481.3,288z M680.5,360.5l-2.7-1.3c1.2,0.2,2.4,0.4,3.6,0.6C680.9,360.1,680.5,360.5,680.5,360.5z
		 M506.3,318.6l102.2-191.5l102.1,191.5H506.3z"/>
	<g>
		<path fill="#FFFFFF" d="M149.6,184.7c-0.1-1.5-0.2-3-0.2-4.6c-0.1-1.3-0.2-2.8-0.2-4.5c0-1.7,0-3.4,0-5c-1.8,3-4.1,5.7-7,8.1
			c-2.5,2-5.6,3.8-9.3,5.5c-3.7,1.7-8.2,2.5-13.5,2.5c-6.2,0-11.6-1.1-16.1-3.2c-4.6-2.2-8.3-5.1-11.3-8.9c-3-3.7-5.2-8.2-6.7-13.2
			c-1.5-5.1-2.2-10.6-2.2-16.4c0-6.6,1-12.5,3.1-17.8c2-5.3,4.9-9.9,8.6-13.6c3.7-3.7,8.1-6.6,13.2-8.7c5.1-2,10.7-3.1,16.8-3.1
			c3.4,0,6.5,0.4,9.4,1.2c2.9,0.8,5.5,1.7,7.8,2.6c2.6,1.2,5,2.5,7.4,3.9V67.7h7.7v100.2c0,2.3,0,4.5,0,6.6c0,2,0.1,3.8,0.2,5.4
			c0,1.9,0.1,3.5,0.2,4.9H149.6z M149.3,118.2c-1.8-1.6-3.8-3.1-6.1-4.4c-2-1.2-4.6-2.2-7.7-3.2c-3.2-0.9-6.8-1.4-10.9-1.4
			c-4.2,0-8.3,0.7-12.2,2c-3.9,1.3-7.4,3.5-10.5,6.4c-3.1,2.9-5.6,6.7-7.5,11.2c-1.9,4.6-2.8,10-2.8,16.3c0,4.6,0.5,8.9,1.6,13
			c1.1,4.1,2.7,7.7,5,10.9c2.3,3.2,5.2,5.7,8.9,7.5c3.6,1.9,8.1,2.8,13.3,2.8c4.9,0,9.2-0.9,12.8-2.7c3.6-1.8,6.6-4.1,9-6.8
			c2.4-2.7,4.2-5.5,5.4-8.5c1.2-3,1.8-5.6,1.8-8V118.2z"/>
		<path fill="#FFFFFF" d="M248.1,172.6c-3.5,4.4-8.3,7.9-14.3,10.4c-6,2.5-12.2,3.8-18.5,3.8c-6,0-11.5-1-16.6-3.1
			c-5.1-2-9.4-4.9-13.1-8.7c-3.6-3.7-6.5-8.2-8.5-13.4c-2-5.2-3.1-11-3.1-17.3c0-5.8,1-11.3,2.9-16.5c1.9-5.1,4.6-9.7,8-13.5
			c3.4-3.9,7.5-6.9,12.3-9.1c4.8-2.2,10.1-3.3,15.8-3.3c5.5,0,10.6,1,15.4,2.9c4.7,1.9,8.8,4.8,12.3,8.5c3.4,3.7,6.1,8.4,8.1,14
			c1.9,5.6,2.9,12,2.9,19.2h-68.8c0.1,4.6,1,8.9,2.6,12.9c1.6,4,3.9,7.5,6.7,10.5c2.8,3,6.2,5.3,10.1,7c3.9,1.7,8.3,2.5,13.1,2.5
			c2.5,0,5-0.3,7.6-0.8c2.6-0.5,5.2-1.3,7.6-2.4c2.5-1.1,4.7-2.3,6.8-3.7c2-1.4,3.8-3,5.2-4.7L248.1,172.6z M243,139.6
			c-1.1-9.9-4.2-17.5-9.5-22.6c-5.3-5.1-12.1-7.7-20.5-7.7c-4.3,0-8.3,0.8-11.8,2.4c-3.6,1.6-6.6,3.7-9.2,6.5
			c-2.6,2.8-4.7,6-6.2,9.7c-1.6,3.7-2.5,7.6-2.7,11.8H243z"/>
		<path fill="#FFFFFF" d="M268.3,67.7h7.9v117h-7.9V67.7z"/>
		<path fill="#FFFFFF" d="M307.6,111.4h-16.1V104h16.1V77.3h7.9V104h26.7v7.4h-26.7V158c0,4.8,0.4,8.6,1.1,11.5
			c0.7,2.9,1.7,5,3.1,6.5c1.3,1.5,2.9,2.4,4.7,2.9c1.8,0.5,3.7,0.7,5.8,0.7c2.9,0,5.4-0.5,7.5-1.6c2.1-1.1,4.2-2.9,6.3-5.4l4.9,4.7
			c-2.3,3-5,5.4-8,7c-3,1.6-6.9,2.5-11.7,2.5c-3.2,0-6.1-0.4-8.8-1.1c-2.7-0.8-5-2.2-6.8-4.2c-1.9-2-3.3-4.8-4.4-8.2
			c-1.1-3.4-1.6-7.9-1.6-13.2V111.4z"/>
		<path fill="#FFFFFF" d="M414.4,184.7c-0.1-1.1-0.2-2.2-0.2-3.5c-0.1-1.2-0.2-2.6-0.2-4.2c0-1.6,0-3.6,0-5.8
			c-2.1,3-4.4,5.6-6.9,7.6c-2.5,2-5.1,3.7-7.9,4.8c-2.8,1.2-5.4,2-8.1,2.5c-2.6,0.5-5.1,0.7-7.3,0.7c-3.4,0-6.8-0.4-10.2-1.1
			c-3.4-0.7-6.4-2-9.1-3.8c-2.7-1.8-4.9-4.3-6.6-7.4c-1.7-3.1-2.5-7-2.5-11.8c0-3.9,0.6-7.5,1.9-11c1.3-3.4,3.3-6.4,6.1-8.9
			c2.8-2.5,6.4-4.5,10.9-6c4.4-1.5,9.8-2.2,16.1-2.2c4.9,0,9.3,0.2,13.2,0.5c3.9,0.4,7.1,0.8,9.8,1.2v-4.6c0-4.4-0.5-8.1-1.6-11.1
			c-1.1-2.9-2.6-5.3-4.7-7c-2.1-1.8-4.7-3-7.7-3.7c-3-0.7-6.6-1.1-10.5-1.1c-6.7,0-12,1-15.9,2.9c-3.9,1.9-6.9,3.8-9,5.5l-4.2-5.4
			c2.2-2.1,5.8-4.3,10.8-6.7c5-2.3,11-3.5,18.2-3.5c10.4,0,18.5,2.2,24.1,6.7c5.7,4.4,8.5,11.8,8.5,22.1v37.2c0,2.3,0,4.5,0,6.6
			c0,2,0.1,3.8,0.2,5.4c0.1,1.9,0.2,3.5,0.4,4.9H414.4z M413.7,143.5c-2.5-0.6-5.5-1.1-9.2-1.5c-3.7-0.4-8.4-0.6-14.1-0.6
			c-6,0-10.7,0.7-14.2,2.2c-3.5,1.5-6.2,3.3-8,5.4c-1.8,2.2-3,4.5-3.5,7c-0.5,2.5-0.8,4.8-0.8,6.8c0,5.9,2,10.1,5.9,12.8
			c3.9,2.7,8.9,4,15,4c4,0,7.7-0.7,11.2-2.1c3.5-1.4,6.6-3.3,9.2-5.6c2.6-2.3,4.7-5,6.2-8c1.5-3,2.3-6,2.3-9V143.5z"/>
		<path fill="#FFFFFF" d="M7.8,217.6h7.8v8.1H7.8V217.6z M8.9,237.7h5.6v57H8.9V237.7z"/>
		<path fill="#FFFFFF" d="M32.1,249.7c0-1.6,0-2.9,0-4c0-1.1,0-2.1,0-3c0-0.9,0-1.7-0.1-2.5c0-0.8-0.1-1.6-0.2-2.5H37
			c0.1,0.9,0.1,1.7,0.2,2.5c0,0.7,0.1,1.6,0.1,2.4c0,0.9,0.1,1.9,0.1,3c0,1.1,0,2.5,0,4c0.7-1.2,1.6-2.6,2.8-4.2
			c1.2-1.6,2.7-3,4.5-4.4c1.8-1.4,3.9-2.5,6.4-3.4c2.5-0.9,5.3-1.4,8.6-1.4c4,0,7.5,0.6,10.2,1.7c2.8,1.2,5,2.8,6.8,5
			c1.7,2.2,3,4.8,3.7,7.9c0.7,3.1,1.1,6.6,1.1,10.4v33.5h-5.6v-31.6c0-4.2-0.4-7.7-1.1-10.5c-0.7-2.8-1.8-5-3.3-6.7
			c-1.4-1.7-3.2-2.8-5.3-3.5c-2.1-0.7-4.5-1-7.3-1c-3.6,0-6.8,0.7-9.4,2.2c-2.6,1.5-4.8,3.4-6.6,5.7c-1.7,2.3-3,4.9-3.9,7.7
			c-0.9,2.8-1.3,5.6-1.3,8.3v29.4h-5.6V249.7z"/>
		<path fill="#FFFFFF" d="M95.9,283.6c2.4,2.4,5.1,4.2,8.2,5.5c3.1,1.3,6.8,1.9,11,1.9c2.3,0,4.5-0.2,6.6-0.7c2.1-0.5,3.9-1.1,5.5-2
			c1.6-0.9,2.8-2,3.7-3.3c0.9-1.3,1.4-2.9,1.4-4.7c0-2.1-0.4-3.8-1.2-5.1c-0.8-1.3-2-2.4-3.7-3.3c-1.6-0.9-3.6-1.6-6.1-2.2
			c-2.4-0.6-5.2-1.3-8.4-2c-2.6-0.6-5.1-1.3-7.3-2c-2.2-0.8-4.1-1.8-5.6-2.9c-1.6-1.2-2.8-2.6-3.7-4.4c-0.9-1.8-1.4-4-1.4-6.6
			c0-2.6,0.6-4.8,1.7-6.8c1.2-1.9,2.7-3.6,4.7-4.9c1.9-1.3,4.2-2.3,6.7-2.9c2.5-0.6,5.1-0.9,7.9-0.9c4.5,0,8.4,0.8,11.8,2.5
			c3.4,1.7,6.2,3.8,8.4,6.3l-3.8,3.5c-2-2.1-4.3-3.9-6.9-5.2c-2.6-1.3-5.7-2-9.4-2c-1.8,0-3.6,0.1-5.5,0.4c-1.8,0.3-3.5,0.8-5,1.6
			c-1.5,0.8-2.7,1.9-3.6,3.2c-0.9,1.4-1.4,3.2-1.4,5.4c0,1.8,0.5,3.3,1.5,4.6c1,1.2,2.4,2.3,4,3.1c1.7,0.8,3.6,1.5,5.7,2
			c2.1,0.5,4.3,1.1,6.4,1.6c2.3,0.5,4.6,1.1,7,1.9c2.4,0.7,4.5,1.7,6.4,2.9c1.9,1.2,3.5,2.7,4.7,4.6c1.2,1.9,1.8,4.2,1.8,7
			c0,2.9-0.7,5.4-2,7.4c-1.3,2.1-3.1,3.8-5.2,5.1c-2.2,1.4-4.6,2.4-7.3,3c-2.7,0.7-5.5,1-8.2,1c-5.4,0-9.9-0.8-13.7-2.4
			c-3.8-1.6-7-3.7-9.6-6.3L95.9,283.6z"/>
		<path fill="#FFFFFF" d="M158.1,242.9h-11.4v-5.2h11.4v-18.8h5.6v18.8h18.8v5.2h-18.8v33c0,3.4,0.2,6.1,0.7,8.1
			c0.5,2,1.2,3.6,2.2,4.6c0.9,1,2,1.7,3.3,2c1.2,0.3,2.6,0.5,4.1,0.5c2.1,0,3.8-0.4,5.3-1.1c1.5-0.7,3-2,4.5-3.8l3.5,3.3
			c-1.7,2.2-3.5,3.8-5.6,5c-2.1,1.2-4.9,1.7-8.2,1.7c-2.2,0-4.3-0.3-6.2-0.8c-1.9-0.5-3.5-1.5-4.8-3c-1.3-1.4-2.4-3.4-3.1-5.8
			c-0.7-2.4-1.1-5.6-1.1-9.4V242.9z"/>
		<path fill="#FFFFFF" d="M196.1,217.6h7.8v8.1h-7.8V217.6z M197.2,237.7h5.6v57h-5.6V237.7z"/>
		<path fill="#FFFFFF" d="M225.8,242.9h-11.4v-5.2h11.4v-18.8h5.6v18.8h18.8v5.2h-18.8v33c0,3.4,0.2,6.1,0.7,8.1
			c0.5,2,1.2,3.6,2.2,4.6c0.9,1,2,1.7,3.3,2c1.2,0.3,2.6,0.5,4.1,0.5c2.1,0,3.8-0.4,5.3-1.1c1.5-0.7,3-2,4.5-3.8l3.5,3.3
			c-1.7,2.2-3.5,3.8-5.6,5c-2.1,1.2-4.9,1.7-8.2,1.7c-2.2,0-4.3-0.3-6.2-0.8c-1.9-0.5-3.5-1.5-4.8-3c-1.3-1.4-2.4-3.4-3.1-5.8
			c-0.7-2.4-1.1-5.6-1.1-9.4V242.9z"/>
		<path fill="#FFFFFF" d="M264.2,237.7h5.6v31.6c0,4.2,0.4,7.7,1.1,10.5c0.7,2.8,1.8,5,3.2,6.7c1.4,1.7,3.1,2.8,5.2,3.5
			c2.1,0.7,4.5,1,7.2,1c3.6,0,6.7-0.7,9.3-2.2c2.6-1.5,4.8-3.4,6.5-5.7c1.7-2.3,3-4.9,3.8-7.7c0.8-2.8,1.2-5.6,1.2-8.3v-29.4h5.6v45
			c0,1.7,0,3,0,4.1c0,1.1,0,2,0,2.9s0,1.7,0.1,2.5c0,0.8,0.1,1.6,0.2,2.5h-5.2c-0.1-0.9-0.1-1.7-0.2-2.5c0-0.7-0.1-1.6-0.1-2.4
			c0-0.9-0.1-1.8-0.1-2.9c0-1.1,0-2.4,0-4.1c-0.7,1.2-1.6,2.6-2.7,4.2c-1.2,1.6-2.6,3-4.3,4.4c-1.7,1.4-3.8,2.5-6.3,3.4
			c-2.4,0.9-5.3,1.4-8.5,1.4c-4.1,0-7.4-0.6-10.2-1.7c-2.7-1.2-4.9-2.8-6.6-5c-1.7-2.2-2.9-4.8-3.6-7.9c-0.7-3.1-1.1-6.5-1.1-10.4
			V237.7z"/>
		<path fill="#FFFFFF" d="M335.3,242.9h-11.4v-5.2h11.4v-18.8h5.6v18.8h18.8v5.2h-18.8v33c0,3.4,0.2,6.1,0.7,8.1
			c0.5,2,1.2,3.6,2.2,4.6c0.9,1,2,1.7,3.3,2c1.2,0.3,2.6,0.5,4.1,0.5c2.1,0,3.8-0.4,5.3-1.1c1.5-0.7,3-2,4.5-3.8l3.5,3.3
			c-1.7,2.2-3.5,3.8-5.6,5c-2.1,1.2-4.9,1.7-8.2,1.7c-2.2,0-4.3-0.3-6.2-0.8c-1.9-0.5-3.5-1.5-4.8-3c-1.3-1.4-2.4-3.4-3.1-5.8
			c-0.7-2.4-1.1-5.6-1.1-9.4V242.9z"/>
		<path fill="#FFFFFF" d="M423.7,286.2c-2.5,3.1-5.8,5.6-10.1,7.4c-4.3,1.8-8.6,2.7-13.1,2.7c-4.2,0-8.1-0.7-11.7-2.2
			c-3.6-1.4-6.7-3.5-9.2-6.1c-2.6-2.6-4.6-5.8-6-9.5c-1.4-3.7-2.2-7.7-2.2-12.2c0-4.1,0.7-8,2-11.7c1.4-3.6,3.2-6.8,5.6-9.5
			c2.4-2.7,5.3-4.9,8.7-6.4c3.4-1.6,7.1-2.4,11.2-2.4c3.9,0,7.5,0.7,10.8,2c3.3,1.4,6.2,3.4,8.7,6c2.4,2.6,4.3,5.9,5.7,9.9
			c1.4,3.9,2,8.5,2,13.6h-48.6c0.1,3.2,0.7,6.3,1.9,9.1c1.2,2.9,2.7,5.3,4.7,7.4c2,2.1,4.4,3.8,7.1,5c2.8,1.2,5.8,1.8,9.2,1.8
			c1.7,0,3.5-0.2,5.4-0.6c1.9-0.4,3.7-0.9,5.4-1.7c1.7-0.7,3.3-1.6,4.8-2.6c1.4-1,2.7-2.1,3.7-3.3L423.7,286.2z M420.1,262.9
			c-0.7-7-3-12.4-6.7-16c-3.7-3.6-8.6-5.5-14.5-5.5c-3.1,0-5.8,0.6-8.4,1.7c-2.5,1.1-4.7,2.6-6.5,4.6c-1.8,1.9-3.3,4.2-4.4,6.8
			c-1.1,2.6-1.8,5.4-1.9,8.4H420.1z"/>
	</g>
</g>
</svg>
