<?xml version="1.0" encoding="utf-8"?>
<!-- Generator: Adobe Illustrator 17.1.0, SVG Export Plug-In . SVG Version: 6.00 Build 0)  -->
<!DOCTYPE svg PUBLIC "-//W3C//DTD SVG 1.1//EN" "http://www.w3.org/Graphics/SVG/1.1/DTD/svg11.dtd">
<svg version="1.1" id="Layer_1" xmlns="http://www.w3.org/2000/svg" xmlns:xlink="http://www.w3.org/1999/xlink" x="0px" y="0px"
	 viewBox="0 0 792 550" enable-background="new 0 0 792 550" xml:space="preserve">
<rect x="399.4" y="83.7" opacity="0.4" fill="#6B656B" width="171.1" height="83"/>
<rect x="609.4" y="83.7" opacity="0.4" fill="#6B656B" width="171.1" height="83"/>
<rect x="187.3" y="83.7" opacity="0.4" fill="#6B656B" width="171.1" height="83"/>
<g id="XMLID_1_">
	<g>
		<path fill="#FFFFFF" d="M351.7,222l-15.3,224.4l-0.4,0c0,12.6-31.3,22.8-70.1,22.8c-38.7,0-70.1-10.2-70.1-22.8h-0.2L180.3,222
			c0-17.1,38.4-30.9,85.7-30.9S351.7,205,351.7,222z"/>
	</g>
	<g>
		<path fill="none" stroke="#6B656B" stroke-width="2" stroke-miterlimit="10" d="M180.3,222c0-17.1,38.4-30.9,85.7-30.9
			s85.8,13.8,85.8,30.9"/>
		<polyline fill="none" stroke="#6B656B" stroke-width="2" stroke-miterlimit="10" points="180.3,222 195.6,446.4 195.8,449.9 		"/>
		<polyline fill="none" stroke="#6B656B" stroke-width="2" stroke-miterlimit="10" points="351.7,222 336.4,446.4 336.2,449.9 		"/>
		<path fill="none" stroke="#6B656B" stroke-width="2" stroke-miterlimit="10" d="M336,446.4c0,12.6-31.3,22.8-70.1,22.8
			c-38.7,0-70.1-10.2-70.1-22.8"/>
	</g>
</g>
<g id="XMLID_4_">
	<g>
		<path fill="#6B656B" d="M187,229.7c12.5-11.5,43.6-19.7,79.9-19.7c35.2,0,65.4,7.6,78.6,18.6l-0.4,6.5l-1.2-0.1
			c-13.6,10.6-43.4,18-77.9,18c-34.3,0-63.8-7.2-77.6-17.8l-1.7,0.1l-0.4-5.7L187,229.7z"/>
		<path fill="#FFFFFF" d="M266.9,210c-36.3,0-67.4,8.1-79.9,19.7l-0.7,0l-0.2-3.5c0-16.3,35.7-29.6,79.8-29.6s79.8,13.2,79.8,29.6
			l-0.2,2.4C332.3,217.7,302.1,210,266.9,210z"/>
		<path fill="#80A63F" d="M335.2,383.3l-3.8,57.7l-0.4,0c0,12.1-29.2,21.8-65.2,21.8c-36,0-65.2-9.7-65.2-21.8h-0.2l-3.8-57.6
			l1.1-0.1c15.7,7.4,40.4,12.2,68.2,12.2c27.9,0,52.7-4.8,68.4-12.2L335.2,383.3z"/>
		<path fill="#6B656B" d="M345.1,235.2l-6.4,96.9c-15.2,8.7-42.1,14.6-72.9,14.6c-30.6,0-57.5-5.8-72.7-14.5l-6.4-96.7l1.7-0.1
			c13.7,10.5,43.3,17.8,77.6,17.8c34.5,0,64.3-7.4,77.9-18L345.1,235.2z"/>
		<path fill="#228EBB" d="M338.7,332.1l-3.4,51.3l-1.1-0.1c-15.7,7.4-40.5,12.2-68.4,12.2c-27.8,0-52.5-4.8-68.2-12.2l-1.1,0.1
			l-3.4-51.3c15.1,8.7,42,14.5,72.7,14.5C296.6,346.7,323.5,340.8,338.7,332.1z"/>
	</g>
	<g>
		<path fill="none" stroke="#6B656B" stroke-width="2" stroke-miterlimit="10" d="M186.1,226.2c0-16.3,35.7-29.6,79.8-29.6
			s79.8,13.2,79.8,29.6"/>
		<polyline fill="none" stroke="#6B656B" stroke-width="2" stroke-miterlimit="10" points="186.1,226.2 186.3,229.8 186.7,235.4 
			193.1,332.1 196.6,383.4 200.4,441 200.6,444.4 		"/>
		<polyline fill="none" stroke="#6B656B" stroke-width="2" stroke-miterlimit="10" points="345.7,226.2 345.5,228.6 345.1,235.2 
			338.7,332.1 335.2,383.3 331.4,441.1 331.2,444.4 		"/>
		<path fill="none" stroke="#6B656B" stroke-width="2" stroke-miterlimit="10" d="M331.1,441c0,12.1-29.2,21.8-65.2,21.8
			c-36,0-65.2-9.7-65.2-21.8"/>
		<path fill="none" stroke="#FFFFFF" stroke-width="2" stroke-linecap="round" stroke-linejoin="round" d="M334.2,383.3
			c-15.7,7.4-40.5,12.2-68.4,12.2c-27.8,0-52.5-4.8-68.2-12.2"/>
		<path fill="none" stroke="#FFFFFF" stroke-width="2" stroke-linecap="round" stroke-linejoin="round" d="M338.7,332.1
			c-15.2,8.7-42.1,14.6-72.9,14.6c-30.6,0-57.5-5.8-72.7-14.5c-0.1-0.1-0.3-0.1-0.4-0.2"/>
		<path fill="none" stroke="#FFFFFF" stroke-width="2" stroke-linecap="round" stroke-linejoin="round" d="M343.9,235.1
			c-13.6,10.6-43.4,18-77.9,18c-34.3,0-63.8-7.2-77.6-17.8"/>
	</g>
</g>
<g id="XMLID_5_" opacity="0.4">
	<g>
		<path fill="#FFFFFF" d="M346.2,228.7v4.5c-12.5,11.5-43.6,19.6-79.9,19.6c-35.5,0-66-7.8-79-18.9v-4.5
			c12.5-11.5,43.6-19.6,79.9-19.6C302.8,209.9,333.2,217.6,346.2,228.7z"/>
	</g>
	<g>
	</g>
</g>
<g id="XMLID_6_">
	<g>
		<path fill="#FFFFFF" d="M568.1,222l-15.3,224.4l-0.4,0c0,12.6-31.3,22.8-70.1,22.8c-38.7,0-70.1-10.2-70.1-22.8H412L396.6,222
			c0-17.1,38.4-30.9,85.7-30.9S568.1,205,568.1,222z"/>
	</g>
	<g>
		<path fill="none" stroke="#6B656B" stroke-width="2" stroke-miterlimit="10" d="M396.6,222c0-17.1,38.4-30.9,85.7-30.9
			s85.8,13.8,85.8,30.9"/>
		<polyline fill="none" stroke="#6B656B" stroke-width="2" stroke-miterlimit="10" points="396.6,222 412,446.4 412.2,449.9 		"/>
		<polyline fill="none" stroke="#6B656B" stroke-width="2" stroke-miterlimit="10" points="568.1,222 552.8,446.4 552.5,449.9 		"/>
		<path fill="none" stroke="#6B656B" stroke-width="2" stroke-miterlimit="10" d="M552.4,446.4c0,12.6-31.3,22.8-70.1,22.8
			c-38.7,0-70.1-10.2-70.1-22.8"/>
	</g>
</g>
<g id="XMLID_3_">
	<g>
		<path fill="#FFFFFF" d="M562,226.2l-4.4,66.9c-14.6-9.5-42.7-15.9-74.9-15.9c-32.8,0-61.3,6.6-75.7,16.4l-4.5-67.4
			c0-16.3,35.7-29.6,79.8-29.6S562,209.9,562,226.2z"/>
		<path fill="#6B656B" d="M557.6,293.2l-0.7,10.3c-14.6,9.5-42.8,15.9-75,15.9c-31.7,0-59.5-6.2-74.3-15.5l-0.7-10.2
			c14.4-9.8,43-16.4,75.7-16.4C514.9,277.2,543,283.7,557.6,293.2z"/>
		<path fill="#6B656B" d="M556.9,303.5l-2.5,37.5c-15.6,8-41.8,13.1-71.6,12.5c-30.9-0.5-57.8-7-72.8-16.1h-0.1l-2.2-33.5
			c14.8,9.3,42.6,15.5,74.3,15.5C514.2,319.4,542.3,313,556.9,303.5z"/>
		<path fill="#228EBB" d="M554.4,341l-5.2,77.9c-15.7,7.1-39.9,11.6-67.1,11.6c-27,0-51.2-4.5-66.9-11.6l-5.4-81.6h0.1
			c14.9,9.2,41.9,15.6,72.8,16.1C512.6,354.1,538.8,349,554.4,341z"/>
		<path fill="#80A63F" d="M549.2,418.9l-1.5,22.1l-0.4,0c0,12.1-29.2,21.8-65.2,21.8c-36,0-65.2-9.7-65.2-21.8h-0.2l-1.5-22.1
			c15.7,7,39.8,11.6,66.9,11.6C509.3,430.6,533.5,426,549.2,418.9z"/>
	</g>
	<g>
		<path fill="none" stroke="#6B656B" stroke-width="2" stroke-miterlimit="10" d="M402.5,226.2c0-16.3,35.7-29.6,79.8-29.6
			s79.8,13.2,79.8,29.6"/>
		<polyline fill="none" stroke="#6B656B" stroke-width="2" stroke-miterlimit="10" points="402.5,226.2 407,293.7 407.6,303.9 
			409.8,337.4 415.3,419 416.7,441 417,444.4 		"/>
		<polyline fill="none" stroke="#6B656B" stroke-width="2" stroke-miterlimit="10" points="562,226.2 557.6,293.2 556.9,303.5 
			554.4,341 549.2,418.9 547.8,441.1 547.6,444.4 		"/>
		<path fill="none" stroke="#6B656B" stroke-width="2" stroke-miterlimit="10" d="M547.4,441c0,12.1-29.2,21.8-65.2,21.8
			c-36,0-65.2-9.7-65.2-21.8"/>
		<path fill="none" stroke="#FFFFFF" stroke-width="2" stroke-linecap="round" stroke-linejoin="round" d="M550.5,418.3
			c-0.4,0.2-0.8,0.4-1.3,0.6c-15.7,7.1-39.9,11.6-67.1,11.6c-27,0-51.2-4.5-66.9-11.6c-0.4-0.2-0.9-0.4-1.3-0.6"/>
		<path fill="none" stroke="#FFFFFF" stroke-width="2" stroke-linecap="round" stroke-linejoin="round" d="M555.9,340.2
			c-0.5,0.3-1,0.5-1.5,0.8c-15.6,8-41.8,13.1-71.6,12.5c-30.9-0.5-57.8-7-72.8-16.1"/>
		<path fill="none" stroke="#FFFFFF" stroke-width="2" stroke-linecap="round" stroke-linejoin="round" d="M561.8,299.8
			c-1.4,1.3-3,2.6-4.9,3.8c-14.6,9.5-42.8,15.9-75,15.9c-31.7,0-59.5-6.2-74.3-15.5c-1.8-1.1-3.3-2.2-4.7-3.4"/>
		<path fill="none" stroke="#FFFFFF" stroke-width="2" stroke-linecap="round" stroke-linejoin="round" d="M402.8,296.9
			c1.2-1.1,2.6-2.2,4.2-3.2c14.4-9.8,43-16.4,75.7-16.4c32.2,0,60.3,6.4,74.9,15.9c1.5,1,2.9,2,4.1,3"/>
	</g>
</g>
<g id="XMLID_2_" opacity="0.4">
	<g>
		<path fill="#FFFFFF" d="M560.6,295.5v4.3c-12.3,11-42.9,18.8-78.7,18.8c-35,0-65-7.4-77.8-18v-4.3c12.3-11,42.9-18.8,78.7-18.8
			C517.8,277.5,547.8,284.9,560.6,295.5z"/>
	</g>
	<g>
	</g>
</g>
<g id="XMLID_9_">
	<g>
		<path fill="#FFFFFF" d="M777.9,222l-15.3,224.4l-0.4,0c0,12.6-31.3,22.8-70.1,22.8c-38.7,0-70.1-10.2-70.1-22.8h-0.2L606.4,222
			c0-17.1,38.4-30.9,85.7-30.9C739.5,191.2,777.9,205,777.9,222z"/>
	</g>
	<g>
		<path fill="none" stroke="#6B656B" stroke-width="2" stroke-miterlimit="10" stroke-dasharray="6" d="M606.4,222
			c0-17.1,38.4-30.9,85.7-30.9c47.4,0,85.8,13.8,85.8,30.9"/>
		<polyline fill="none" stroke="#6B656B" stroke-width="2" stroke-miterlimit="10" stroke-dasharray="6" points="606.4,222 
			621.7,446.4 622,449.9 		"/>
		<polyline fill="none" stroke="#6B656B" stroke-width="2" stroke-miterlimit="10" stroke-dasharray="6" points="777.9,222 
			762.5,446.4 762.3,449.9 		"/>
		<path fill="none" stroke="#6B656B" stroke-width="2" stroke-miterlimit="10" stroke-dasharray="6" d="M762.2,446.4
			c0,12.6-31.3,22.8-70.1,22.8c-38.7,0-70.1-10.2-70.1-22.8"/>
	</g>
</g>
<g id="XMLID_8_">
	<g>
		<path fill="#FFFFFF" d="M771.8,226.2l-14.3,214.8l-0.4,0c0,12.1-29.2,21.8-65.2,21.8c-36,0-65.2-9.7-65.2-21.8h-0.2l-14.3-214.8
			c0-16.3,35.7-29.6,79.8-29.6S771.8,209.9,771.8,226.2z"/>
	</g>
	<g>
		<path fill="none" stroke="#6B656B" stroke-width="2" stroke-miterlimit="10" stroke-dasharray="6" d="M612.3,226.2
			c0-16.3,35.7-29.6,79.8-29.6s79.8,13.2,79.8,29.6"/>
		<polyline fill="none" stroke="#6B656B" stroke-width="2" stroke-miterlimit="10" stroke-dasharray="6" points="612.3,226.2 
			626.5,441 626.7,444.4 		"/>
		<polyline fill="none" stroke="#6B656B" stroke-width="2" stroke-miterlimit="10" stroke-dasharray="6" points="771.8,226.2 
			757.6,441.1 757.3,444.4 		"/>
		<path fill="none" stroke="#6B656B" stroke-width="2" stroke-miterlimit="10" stroke-dasharray="6" d="M757.2,441
			c0,12.1-29.2,21.8-65.2,21.8c-36,0-65.2-9.7-65.2-21.8"/>
	</g>
</g>
<text transform="matrix(1 0 0 1 167.4323 528.9046)" fill="#6B656B" font-family="'OpenSansLight-Italic'" font-size="24.1217">missed opportunity</text>
<g>
	<g>
		<line fill="none" stroke="#6B656B" stroke-width="2" stroke-miterlimit="10" x1="692.2" y1="427.3" x2="692.2" y2="500.9"/>
		<g>
			<path fill="#6B656B" d="M692.2,420.1c-1.3,3.4-3.4,7.6-5.7,10.3l5.7-2.1l5.7,2.1C695.6,427.7,693.4,423.5,692.2,420.1z"/>
		</g>
	</g>
</g>
<text transform="matrix(1 0 0 1 627.4641 529.7239)" fill="#6B656B" font-family="'OpenSansLight-Italic'" font-size="24.1217">lack of access</text>
<text transform="matrix(1 0 0 1 30.9811 527.6077)" fill="#6B656B" font-family="'OpenSansLight-Italic'" font-size="24.1217">confusion</text>
<text transform="matrix(1 0 0 1 407.6613 529.7239)" fill="#6B656B" font-family="'OpenSansLight-Italic'" font-size="24.1217">contamination</text>
<path fill="none" d="M185.9,326.9c13,11.1,43.5,18.9,79,18.9c36.3,0,67.4-8.1,79.9-19.6"/>
<text transform="matrix(0.9872 0.1597 -0.1597 0.9872 223.5139 342.0862)" opacity="0.4"><tspan x="0" y="0" fill="#FFFFFF" font-family="'OpenSans-Bold'" font-size="21.9289">T</tspan><tspan x="13.4" y="0" fill="#FFFFFF" font-family="'OpenSans-Bold'" font-size="21.9289" rotate="-4">R</tspan><tspan x="28.5" y="-1.1" fill="#FFFFFF" font-family="'OpenSans-Bold'" font-size="21.9289" rotate="-7.9">A</tspan><tspan x="43.9" y="-3.3" fill="#FFFFFF" font-family="'OpenSans-Bold'" font-size="21.9289" rotate="-11.2">S</tspan><tspan x="56.4" y="-5.7" fill="#FFFFFF" font-family="'OpenSans-Bold'" font-size="21.9289" rotate="-15.1">H</tspan></text>
<path fill="none" d="M408.8,333.2c13,11.1,43.5,18.9,79,18.9c36.3,0,67.4-8.1,79.9-19.6"/>
<text transform="matrix(0.9872 0.1598 -0.1598 0.9872 446.4162 348.3157)" opacity="0.4"><tspan x="0" y="0" fill="#FFFFFF" font-family="'OpenSans-Bold'" font-size="21.9289">T</tspan><tspan x="13.4" y="0" fill="#FFFFFF" font-family="'OpenSans-Bold'" font-size="21.9289" rotate="-4">R</tspan><tspan x="28.5" y="-1.1" fill="#FFFFFF" font-family="'OpenSans-Bold'" font-size="21.9289" rotate="-7.9">A</tspan><tspan x="43.9" y="-3.3" fill="#FFFFFF" font-family="'OpenSans-Bold'" font-size="21.9289" rotate="-11.2">S</tspan><tspan x="56.4" y="-5.7" fill="#FFFFFF" font-family="'OpenSans-Bold'" font-size="21.9289" rotate="-15.1">H</tspan></text>
<path fill="none" d="M187.3,376.5c13,11.1,43.5,18.9,79,18.9c36.3,0,67.4-8.1,79.9-19.6"/>
<text transform="matrix(0.9412 0.3378 -0.3378 0.9412 199.0226 383.971)" opacity="0.4"><tspan x="0" y="0" fill="#FFFFFF" font-family="'OpenSans-Bold'" font-size="21.9289">R</tspan><tspan x="15.6" y="-0.2" fill="#FFFFFF" font-family="'OpenSans-Bold'" font-size="21.9289" rotate="-6.6">E</tspan><tspan x="28.6" y="-1.7" fill="#FFFFFF" font-family="'OpenSans-Bold'" font-size="21.9289" rotate="-11.2">C</tspan><tspan x="42.9" y="-4.6" fill="#FFFFFF" font-family="'OpenSans-Bold'" font-size="21.9289" rotate="-15.2">Y</tspan><tspan x="56.7" y="-8.4" fill="#FFFFFF" font-family="'OpenSans-Bold'" font-size="21.9289" rotate="-18.8">C</tspan><tspan x="70.4" y="-13" fill="#FFFFFF" font-family="'OpenSans-Bold'" font-size="21.9289" rotate="-22">L</tspan><tspan x="82.2" y="-17.9" fill="#FFFFFF" font-family="'OpenSans-Bold'" font-size="21.9289" rotate="-24.6">I</tspan><tspan x="89.5" y="-21" fill="#FFFFFF" font-family="'OpenSans-Bold'" font-size="21.9289" rotate="-28.2">N</tspan><tspan x="106.1" y="-30" fill="#FFFFFF" font-family="'OpenSans-Bold'" font-size="21.9289" rotate="-34.4">G</tspan></text>
<path fill="none" d="M405.5,410.1c13,11.1,43.5,18.9,79,18.9c36.3,0,67.4-8.1,79.9-19.6"/>
<text transform="matrix(0.9412 0.3378 -0.3378 0.9412 417.2053 417.5316)" opacity="0.4"><tspan x="0" y="0" fill="#FFFFFF" font-family="'OpenSans-Bold'" font-size="21.9289">R</tspan><tspan x="15.6" y="-0.2" fill="#FFFFFF" font-family="'OpenSans-Bold'" font-size="21.9289" rotate="-6.6">E</tspan><tspan x="28.6" y="-1.7" fill="#FFFFFF" font-family="'OpenSans-Bold'" font-size="21.9289" rotate="-11.2">C</tspan><tspan x="42.9" y="-4.6" fill="#FFFFFF" font-family="'OpenSans-Bold'" font-size="21.9289" rotate="-15.2">Y</tspan><tspan x="56.7" y="-8.4" fill="#FFFFFF" font-family="'OpenSans-Bold'" font-size="21.9289" rotate="-18.8">C</tspan><tspan x="70.4" y="-13" fill="#FFFFFF" font-family="'OpenSans-Bold'" font-size="21.9289" rotate="-22">L</tspan><tspan x="82.2" y="-17.9" fill="#FFFFFF" font-family="'OpenSans-Bold'" font-size="21.9289" rotate="-24.6">I</tspan><tspan x="89.5" y="-21" fill="#FFFFFF" font-family="'OpenSans-Bold'" font-size="21.9289" rotate="-28.2">N</tspan><tspan x="106.1" y="-30" fill="#FFFFFF" font-family="'OpenSans-Bold'" font-size="21.9289" rotate="-34.4">G</tspan></text>
<path fill="none" d="M190.1,441.8c13,11.1,43.5,18.9,79,18.9c36.3,0,67.4-8.1,79.9-19.6"/>
<text transform="matrix(0.9605 0.2781 -0.2781 0.9605 208.6891 451.9407)" opacity="0.4"><tspan x="0" y="0" fill="#FFFFFF" font-family="'OpenSans-Bold'" font-size="21.9289">C</tspan><tspan x="15" y="0" fill="#FFFFFF" font-family="'OpenSans-Bold'" font-size="21.9289" rotate="-6.3">O</tspan><tspan x="33.4" y="-2" fill="#FFFFFF" font-family="'OpenSans-Bold'" font-size="21.9289" rotate="-11.9">M</tspan><tspan x="54.2" y="-6.6" fill="#FFFFFF" font-family="'OpenSans-Bold'" font-size="21.9289" rotate="-16.4">P</tspan><tspan x="68.1" y="-10.6" fill="#FFFFFF" font-family="'OpenSans-Bold'" font-size="21.9289" rotate="-20.2">O</tspan><tspan x="85.1" y="-17" fill="#FFFFFF" font-family="'OpenSans-Bold'" font-size="21.9289" rotate="-24.4">S</tspan><tspan x="96.7" y="-22.2" fill="#FFFFFF" font-family="'OpenSans-Bold'" font-size="21.9289" rotate="-28.7">T</tspan></text>
<path fill="none" d="M408.9,442.6c13,11.1,43.5,18.9,79,18.9c36.3,0,67.4-8.1,79.9-19.6"/>
<text transform="matrix(0.9606 0.278 -0.278 0.9606 427.551 452.7698)" opacity="0.4"><tspan x="0" y="0" fill="#FFFFFF" font-family="'OpenSans-Bold'" font-size="21.9289">C</tspan><tspan x="15" y="0" fill="#FFFFFF" font-family="'OpenSans-Bold'" font-size="21.9289" rotate="-6.3">O</tspan><tspan x="33.3" y="-2" fill="#FFFFFF" font-family="'OpenSans-Bold'" font-size="21.9289" rotate="-11.9">M</tspan><tspan x="54.2" y="-6.6" fill="#FFFFFF" font-family="'OpenSans-Bold'" font-size="21.9289" rotate="-16.4">P</tspan><tspan x="68" y="-10.6" fill="#FFFFFF" font-family="'OpenSans-Bold'" font-size="21.9289" rotate="-20.2">O</tspan><tspan x="85" y="-16.9" fill="#FFFFFF" font-family="'OpenSans-Bold'" font-size="21.9289" rotate="-24.4">S</tspan><tspan x="96.7" y="-22.2" fill="#FFFFFF" font-family="'OpenSans-Bold'" font-size="21.9289" rotate="-28.6">T</tspan></text>
<g>
	<g>
		<line fill="none" stroke="#6B656B" stroke-width="2" stroke-miterlimit="10" x1="274.5" y1="469.5" x2="274.5" y2="500.9"/>
		<g>
			<path fill="#6B656B" d="M274.5,462.3c-1.3,3.4-3.4,7.6-5.7,10.3l5.7-2.1l5.7,2.1C277.9,469.9,275.8,465.7,274.5,462.3z"/>
		</g>
	</g>
</g>
<g>
	<g>
		<line fill="none" stroke="#6B656B" stroke-width="2" stroke-miterlimit="10" x1="257" y1="403.5" x2="257" y2="501.1"/>
		<g>
			<path fill="#6B656B" d="M257,396.2c-1.3,3.4-3.4,7.6-5.7,10.3l5.7-2.1l5.7,2.1C260.4,403.9,258.2,399.6,257,396.2z"/>
		</g>
	</g>
</g>
<g>
	<g>
		<line fill="none" stroke="#6B656B" stroke-width="2" stroke-miterlimit="10" x1="489.4" y1="470.1" x2="489.4" y2="502"/>
		<g>
			<path fill="#6B656B" d="M489.4,462.9c-1.3,3.4-3.4,7.6-5.7,10.3l5.7-2.1l5.7,2.1C492.8,470.5,490.7,466.3,489.4,462.9z"/>
		</g>
	</g>
</g>
<g>
	<g>
		<line fill="none" stroke="#6B656B" stroke-width="2" stroke-miterlimit="10" x1="475.2" y1="360.3" x2="475.2" y2="501.9"/>
		<g>
			<path fill="#6B656B" d="M475.2,353c-1.3,3.4-3.4,7.6-5.7,10.3l5.7-2.1l5.7,2.1C478.6,360.6,476.5,356.4,475.2,353z"/>
		</g>
	</g>
</g>
<text transform="matrix(1 0 0 1 53.1086 101.888)" fill="#6B656B" font-family="'OpenSans-Bold'" font-size="100.1504">?</text>
<rect x="396.6" y="81.6" fill="#FFFFFF" stroke="#6B656B" stroke-width="2" stroke-miterlimit="10" width="171.1" height="83"/>
<rect x="606.6" y="81.6" fill="#FFFFFF" stroke="#6B656B" stroke-width="2" stroke-miterlimit="10" width="171.1" height="83"/>
<rect x="184.5" y="81.6" fill="#FFFFFF" stroke="#6B656B" stroke-width="2" stroke-miterlimit="10" width="171.1" height="83"/>
<text transform="matrix(1 0 0 1 221.9728 119.7132)"><tspan x="0" y="0" fill="#6B656B" font-family="'OpenSans-Bold'" font-size="27.4111">TRASH</tspan><tspan x="19.6" y="29.6" fill="#6B656B" font-family="'OpenSans-Bold'" font-size="27.4111">BIN</tspan></text>
<text transform="matrix(1 0 0 1 406.1008 119.7132)"><tspan x="0" y="0" fill="#228EBB" font-family="'OpenSans-Bold'" font-size="27.4111">RECYCLING</tspan><tspan x="51.2" y="29.6" fill="#228EBB" font-family="'OpenSans-Bold'" font-size="27.4111">BIN</tspan></text>
<text transform="matrix(1 0 0 1 624.5959 119.7132)"><tspan x="0" y="0" fill="#80A63F" font-family="'OpenSans-Bold'" font-size="27.4111">COMPOST</tspan><tspan x="42.7" y="29.6" fill="#80A63F" font-family="'OpenSans-Bold'" font-size="27.4111">BIN</tspan></text>
<g>
	<g>
		<g>
			<g>
				<path fill="#6B656B" d="M108,299l7.4,155.1c0,7.6-2.4,13.9-12.2,13.9h-5.4c-4-0.5-9.8-6.4-9.8-14.1l-7.8-109.2l-0.3-6.1
					c-1,0.1-2.1,0.2-3.2,0.2c-1.5,0-3-0.1-4.4-0.3v6.1l-7.9,109.2c0,7.6-5.6,13.6-9.7,14.1h-5.4c-9.8,0-12.2-6.2-12.2-13.9
					l6.5-148.8l0.1-2.1l2.2-69.4l-13.1,72.3c-1.4,9.6-6.2,13.6-12,12.7c-5-0.8-8-4.9-8-12c0-1.4,0.2-2.8,0.4-4.4l12.8-85.5
					c3.9-23.4,29.6-25.5,35.6-24.6l0.5-0.8c-11-5.8-18.5-17.9-18.5-31.8c0-19.7,14.8-35.5,33.1-35.5s33.1,15.8,33.1,35.5
					c0,13.5-7,25.1-17.4,31.1l0.7,1.2c5.9-0.8,31.6,1.6,35.3,25l11.7,85.6c0.2,1.5,0.3,2.9,0.3,4.2c0,7.2-3,11.4-8,12.1
					c-5.9,0.9-10.6-3.1-11.9-12.8L108,232.6V299z"/>
			</g>
		</g>
	</g>
</g>
</svg>
